<svg width="40" height="40" viewBox="0 0 40 40" fill="none" xmlns="http://www.w3.org/2000/svg">
<g clip-path="url(#clip0_625_169)">
<circle cx="20" cy="20" r="20" fill="#2E6BE6"/>
<rect x="6" y="20" width="28" height="6" rx="3" fill="#80EAFF"/>
<rect x="8" y="15" width="24" height="16" rx="8" fill="#F3F4F6"/>
<g filter="url(#filter0_i_625_169)">
<rect x="11" y="18" width="18" height="10" rx="5" fill="#1F2937"/>
</g>
<g filter="url(#filter1_d_625_169)">
<circle cx="17" cy="22" r="1" fill="#80EAFF"/>
</g>
<g filter="url(#filter2_d_625_169)">
<circle cx="23" cy="22" r="1" fill="#80EAFF"/>
</g>
<g filter="url(#filter3_d_625_169)">
<path d="M18 24H22C22 25.1046 21.1046 26 20 26C18.8954 26 18 25.1046 18 24Z" fill="#80EAFF"/>
</g>
<path fill-rule="evenodd" clip-rule="evenodd" d="M19 8C18.4477 8 18 8.44772 18 9V9.07089V10.5C18 10.7761 17.7761 11 17.5 11C17.2239 11 17 10.7761 17 10.5V9.28988C14.1085 10.1504 12 12.829 12 16H28C28 12.829 25.8915 10.1504 23 9.28988V10.5C23 10.7761 22.7761 11 22.5 11C22.2239 11 22 10.7761 22 10.5V9.07089V9C22 8.44772 21.5523 8 21 8H19Z" fill="#FFC411"/>
<rect x="10" y="15" width="20" height="2" rx="1" fill="#EFA800"/>
</g>
<defs>
<filter id="filter0_i_625_169" x="11" y="18" width="18" height="10" filterUnits="userSpaceOnUse" color-interpolation-filters="sRGB">
<feFlood flood-opacity="0" result="BackgroundImageFix"/>
<feBlend mode="normal" in="SourceGraphic" in2="BackgroundImageFix" result="shape"/>
<feColorMatrix in="SourceAlpha" type="matrix" values="0 0 0 0 0 0 0 0 0 0 0 0 0 0 0 0 0 0 127 0" result="hardAlpha"/>
<feOffset/>
<feGaussianBlur stdDeviation="1"/>
<feComposite in2="hardAlpha" operator="arithmetic" k2="-1" k3="1"/>
<feColorMatrix type="matrix" values="0 0 0 0 0 0 0 0 0 0 0 0 0 0 0 0 0 0 0.2 0"/>
<feBlend mode="normal" in2="shape" result="effect1_innerShadow_625_169"/>
</filter>
<filter id="filter1_d_625_169" x="15" y="20" width="4" height="4" filterUnits="userSpaceOnUse" color-interpolation-filters="sRGB">
<feFlood flood-opacity="0" result="BackgroundImageFix"/>
<feColorMatrix in="SourceAlpha" type="matrix" values="0 0 0 0 0 0 0 0 0 0 0 0 0 0 0 0 0 0 127 0" result="hardAlpha"/>
<feOffset/>
<feGaussianBlur stdDeviation="0.5"/>
<feComposite in2="hardAlpha" operator="out"/>
<feColorMatrix type="matrix" values="0 0 0 0 0.501961 0 0 0 0 0.917647 0 0 0 0 1 0 0 0 0.5 0"/>
<feBlend mode="normal" in2="BackgroundImageFix" result="effect1_dropShadow_625_169"/>
<feBlend mode="normal" in="SourceGraphic" in2="effect1_dropShadow_625_169" result="shape"/>
</filter>
<filter id="filter2_d_625_169" x="21" y="20" width="4" height="4" filterUnits="userSpaceOnUse" color-interpolation-filters="sRGB">
<feFlood flood-opacity="0" result="BackgroundImageFix"/>
<feColorMatrix in="SourceAlpha" type="matrix" values="0 0 0 0 0 0 0 0 0 0 0 0 0 0 0 0 0 0 127 0" result="hardAlpha"/>
<feOffset/>
<feGaussianBlur stdDeviation="0.5"/>
<feComposite in2="hardAlpha" operator="out"/>
<feColorMatrix type="matrix" values="0 0 0 0 0.501961 0 0 0 0 0.917647 0 0 0 0 1 0 0 0 0.5 0"/>
<feBlend mode="normal" in2="BackgroundImageFix" result="effect1_dropShadow_625_169"/>
<feBlend mode="normal" in="SourceGraphic" in2="effect1_dropShadow_625_169" result="shape"/>
</filter>
<filter id="filter3_d_625_169" x="17" y="23" width="6" height="4" filterUnits="userSpaceOnUse" color-interpolation-filters="sRGB">
<feFlood flood-opacity="0" result="BackgroundImageFix"/>
<feColorMatrix in="SourceAlpha" type="matrix" values="0 0 0 0 0 0 0 0 0 0 0 0 0 0 0 0 0 0 127 0" result="hardAlpha"/>
<feOffset/>
<feGaussianBlur stdDeviation="0.5"/>
<feComposite in2="hardAlpha" operator="out"/>
<feColorMatrix type="matrix" values="0 0 0 0 0.501961 0 0 0 0 0.917647 0 0 0 0 1 0 0 0 0.5 0"/>
<feBlend mode="normal" in2="BackgroundImageFix" result="effect1_dropShadow_625_169"/>
<feBlend mode="normal" in="SourceGraphic" in2="effect1_dropShadow_625_169" result="shape"/>
</filter>
<clipPath id="clip0_625_169">
<rect width="40" height="40" fill="white"/>
</clipPath>
</defs>
</svg>
