<svg width="20" height="20" viewBox="0 0 20 20" fill="none" xmlns="http://www.w3.org/2000/svg">
<g id="Group">
<path id="Vector" d="M12.5 3.33334H4.16667V16.6667H15.8333V6.66667H12.5V3.33334ZM2.5 2.49334C2.5 2.03667 2.8725 1.66667 3.3325 1.66667H13.3333L17.5 5.83334V17.4942C17.5008 17.6036 17.48 17.7121 17.4388 17.8135C17.3976 17.9149 17.3369 18.0072 17.2601 18.0851C17.1832 18.1631 17.0918 18.2251 16.991 18.2677C16.8901 18.3103 16.7819 18.3326 16.6725 18.3333H3.3275C3.10865 18.3318 2.89918 18.2443 2.74435 18.0896C2.58951 17.9349 2.50175 17.7255 2.5 17.5067V2.49334ZM11.2742 12.8717C10.5753 13.28 9.75171 13.4203 8.95706 13.2662C8.1624 13.1122 7.45089 12.6744 6.95519 12.0345C6.45949 11.3946 6.21345 10.5962 6.26294 9.78827C6.31243 8.98033 6.65407 8.21797 7.22417 7.64334C7.79787 7.06974 8.56108 6.72505 9.37073 6.67388C10.1804 6.62271 10.9809 6.86857 11.6223 7.36538C12.2636 7.86219 12.7018 8.57585 12.8546 9.37259C13.0075 10.1693 12.8645 10.9945 12.4525 11.6933L14.2942 13.535L13.1158 14.7142L11.2742 12.8717ZM10.7592 11.1783C10.9184 11.0246 11.0453 10.8407 11.1327 10.6373C11.22 10.434 11.266 10.2153 11.2679 9.99401C11.2698 9.77271 11.2277 9.55324 11.1439 9.34842C11.0601 9.14359 10.9363 8.9575 10.7798 8.80101C10.6233 8.64453 10.4373 8.52077 10.2324 8.43697C10.0276 8.35317 9.80813 8.311 9.58683 8.31292C9.36553 8.31484 9.14683 8.36082 8.94349 8.44817C8.74015 8.53552 8.55625 8.66249 8.4025 8.82167C8.0989 9.13601 7.93091 9.55701 7.93471 9.99401C7.93851 10.431 8.11379 10.849 8.4228 11.158C8.73182 11.467 9.14984 11.6423 9.58683 11.6461C10.0238 11.6499 10.4448 11.4819 10.7592 11.1783Z" fill="#EE473B"/>
</g>
</svg>
