<svg width="18" height="18" viewBox="0 0 18 18" fill="none" xmlns="http://www.w3.org/2000/svg">
<g id="Group">
<path id="Vector" d="M14.8833 15.8103C13.2502 17.2254 11.1609 18.003 9 18C4.0293 18 0 13.9707 0 9C0 4.0293 4.0293 0 9 0C13.9707 0 18 4.0293 18 9C18 10.9224 17.397 12.7044 16.371 14.166L13.5 9H16.2C16.1999 7.34058 15.6265 5.73215 14.577 4.4468C13.5275 3.16144 12.0662 2.27807 10.4403 1.94612C8.81443 1.61417 7.1238 1.85402 5.65441 2.62509C4.18502 3.39616 3.02708 4.65112 2.37647 6.17767C1.72586 7.70422 1.62252 9.40865 2.08394 11.0026C2.54536 12.5966 3.5432 13.9823 4.90867 14.9252C6.27414 15.8681 7.92341 16.3105 9.57748 16.1774C11.2315 16.0443 12.7889 15.3439 13.986 14.1948L14.8833 15.8103Z" fill="#9CA3AF"/>
</g>
</svg>
