<svg width="20" height="20" viewBox="0 0 20 20" fill="none" xmlns="http://www.w3.org/2000/svg">
<g id="icon_file">
<path id="Subtract" fill-rule="evenodd" clip-rule="evenodd" d="M4.99992 1.66666H11.6666L16.6666 6.66666V9.99999H14.9999V7.49999H10.8333V3.33332H4.99992V16.6667H8.33325V18.3333H4.99159C4.07492 18.3333 3.33325 17.5833 3.33325 16.6667L3.34159 3.33332C3.34159 2.41666 4.08325 1.66666 4.99992 1.66666Z" fill="#D1D5DB"/>
<path id="Vector" d="M15 12.5V15.8333C15 16.75 14.25 17.5 13.3333 17.5C12.4167 17.5 11.6667 16.75 11.6667 15.8333V12.0833C11.6667 11.85 11.85 11.6667 12.0833 11.6667C12.3167 11.6667 12.5 11.85 12.5 12.0833V15.8333H14.1667V12.0833C14.1667 10.9333 13.2333 10 12.0833 10C10.9333 10 10 10.9333 10 12.0833V15.8333C10 17.675 11.4917 19.1667 13.3333 19.1667C15.175 19.1667 16.6667 17.675 16.6667 15.8333V12.5H15Z" fill="#D1D5DB"/>
</g>
</svg>
