<svg width="20" height="20" viewBox="0 0 20 20" fill="none" xmlns="http://www.w3.org/2000/svg">
<g id="icon_search">
<path id="Vector" d="M13.1291 11.8792H12.4707L12.2374 11.6542C13.0541 10.7042 13.5457 9.47083 13.5457 8.12916C13.5457 5.13749 11.1207 2.71249 8.12907 2.71249C5.1374 2.71249 2.7124 5.13749 2.7124 8.12916C2.7124 11.1208 5.1374 13.5458 8.12907 13.5458C9.47074 13.5458 10.7041 13.0542 11.6541 12.2375L11.8791 12.4708V13.1292L16.0457 17.2875L17.2874 16.0458L13.1291 11.8792ZM8.12907 11.8792C6.05407 11.8792 4.37907 10.2042 4.37907 8.12916C4.37907 6.05416 6.05407 4.37916 8.12907 4.37916C10.2041 4.37916 11.8791 6.05416 11.8791 8.12916C11.8791 10.2042 10.2041 11.8792 8.12907 11.8792Z" fill="#D1D5DB"/>
</g>
</svg>
