<svg width="24" height="24" viewBox="0 0 24 24" fill="none" xmlns="http://www.w3.org/2000/svg">
<g id="Page facing up">
<path id="Shape" d="M15.2574 1.71967C15.1167 1.57902 14.926 1.5 14.727 1.5H5.25C4.42157 1.5 3.75 2.17157 3.75 3V21C3.75 21.8284 4.42157 22.5 5.25 22.5H18.75C19.5784 22.5 20.25 21.8284 20.25 21V7.02296C20.25 6.82404 20.171 6.63328 20.0303 6.49263L15.2574 1.71967Z" fill="#D1D5DB"/>
<path id="Shape_2" d="M14.7616 2.25001L5.25 2.25C4.83579 2.25 4.5 2.58579 4.5 3V21C4.5 21.4142 4.83579 21.75 5.25 21.75L18.75 21.75C19.1642 21.75 19.5 21.4142 19.5 21V7.09L14.7616 2.25001Z" fill="#F3F4F6"/>
<path id="Shape_3" d="M7.125 9H16.875C17.0821 9 17.25 9.16789 17.25 9.375C17.25 9.58211 17.0821 9.75 16.875 9.75H7.125C6.91789 9.75 6.75 9.58211 6.75 9.375C6.75 9.16789 6.91789 9 7.125 9ZM7.125 11.25C6.91789 11.25 6.75 11.4179 6.75 11.625C6.75 11.8321 6.91789 12 7.125 12H16.875C17.0821 12 17.25 11.8321 17.25 11.625C17.25 11.4179 17.0821 11.25 16.875 11.25H7.125ZM6.75 13.875C6.75 13.6679 6.91789 13.5 7.125 13.5H16.875C17.0821 13.5 17.25 13.6679 17.25 13.875C17.25 14.0821 17.0821 14.25 16.875 14.25H7.125C6.91789 14.25 6.75 14.0821 6.75 13.875ZM7.125 15.75C6.91789 15.75 6.75 15.9179 6.75 16.125C6.75 16.3321 6.91789 16.5 7.125 16.5H13.125C13.3321 16.5 13.5 16.3321 13.5 16.125C13.5 15.9179 13.3321 15.75 13.125 15.75H7.125Z" fill="#9CA3AF"/>
<path id="Shape_4" d="M19.5001 7.08994H16.0421C15.3349 7.08994 14.7617 6.51672 14.7617 5.80961V2.25L19.5001 7.08994Z" fill="#D1D5DB"/>
</g>
</svg>
