<svg width="40" height="40" viewBox="0 0 40 40" fill="none" xmlns="http://www.w3.org/2000/svg">
<g clip-path="url(#clip0_257_1194)">
<circle cx="20" cy="20" r="20" fill="#F3F4F6"/>
<path d="M20 14C21.1 14 22 14.9 22 16C22 17.1 21.1 18 20 18C18.9 18 18 17.1 18 16C18 14.9 18.9 14 20 14ZM20 24C22.7 24 25.8 25.29 26 26H14C14.23 25.28 17.31 24 20 24ZM20 12C17.79 12 16 13.79 16 16C16 18.21 17.79 20 20 20C22.21 20 24 18.21 24 16C24 13.79 22.21 12 20 12ZM20 22C17.33 22 12 23.34 12 26V28H28V26C28 23.34 22.67 22 20 22Z" fill="#9CA3AF"/>
</g>
<defs>
<clipPath id="clip0_257_1194">
<rect width="40" height="40" fill="white"/>
</clipPath>
</defs>
</svg>
