<svg width="30" height="30" viewBox="0 0 30 30" fill="none" xmlns="http://www.w3.org/2000/svg">
<g id="Group">
<path id="Vector" d="M3.75 16.25H11.25V13.75H3.75V2.30751C3.75002 2.1989 3.77834 2.09218 3.83217 1.99785C3.886 1.90352 3.96348 1.82485 4.05697 1.76958C4.15047 1.71432 4.25675 1.68437 4.36534 1.68269C4.47394 1.68101 4.58109 1.70766 4.67625 1.76001L27.7537 14.4525C27.8517 14.5065 27.9335 14.5857 27.9904 14.682C28.0473 14.7783 28.0773 14.8881 28.0773 15C28.0773 15.1119 28.0473 15.2217 27.9904 15.318C27.9335 15.4143 27.8517 15.4936 27.7537 15.5475L4.67625 28.24C4.58109 28.2924 4.47394 28.319 4.36534 28.3173C4.25675 28.3156 4.15047 28.2857 4.05697 28.2304C3.96348 28.1752 3.886 28.0965 3.83217 28.0022C3.77834 27.9078 3.75002 27.8011 3.75 27.6925V16.25Z" fill="url(#paint0_linear_314_169)"/>
</g>
<defs>
<linearGradient id="paint0_linear_314_169" x1="-6" y1="12" x2="24.5182" y2="28.7307" gradientUnits="userSpaceOnUse">
<stop stop-color="#FFB2A6"/>
<stop offset="1" stop-color="#EE473B"/>
</linearGradient>
</defs>
</svg>
