<svg width="20" height="20" viewBox="0 0 20 20" fill="none" xmlns="http://www.w3.org/2000/svg">
<g id="thumb-up-line">
<g id="Group">
<path id="Vector" d="M12.1666 6.66666H17.4999C17.9419 6.66666 18.3659 6.84225 18.6784 7.15481C18.991 7.46737 19.1666 7.8913 19.1666 8.33332V10.0867C19.1668 10.3045 19.1243 10.5202 19.0416 10.7217L16.4624 16.9842C16.3995 17.1368 16.2926 17.2674 16.1554 17.3592C16.0182 17.4511 15.8567 17.5001 15.6916 17.5H1.66659C1.44557 17.5 1.23361 17.4122 1.07733 17.2559C0.921049 17.0996 0.833252 16.8877 0.833252 16.6667V8.33332C0.833252 8.11231 0.921049 7.90035 1.07733 7.74407C1.23361 7.58779 1.44557 7.49999 1.66659 7.49999H4.56825C4.70167 7.50002 4.83314 7.46803 4.95161 7.40669C5.07009 7.34534 5.17211 7.25645 5.24908 7.14749L9.79325 0.708324C9.8507 0.626918 9.93541 0.568791 10.032 0.544483C10.1287 0.520174 10.2308 0.531294 10.3199 0.575824L11.8316 1.33166C12.257 1.54429 12.5969 1.89609 12.7947 2.32859C12.9925 2.76109 13.0364 3.24826 12.9191 3.70916L12.1666 6.66666ZM5.83325 8.82332V15.8333H15.1333L17.4999 10.0867V8.33332H12.1666C11.9128 8.33329 11.6623 8.27527 11.4343 8.16371C11.2063 8.05214 11.0068 7.88997 10.851 7.68956C10.6952 7.48916 10.5872 7.25582 10.5353 7.00734C10.4835 6.75887 10.489 6.50183 10.5516 6.25582L11.3041 3.29916C11.3276 3.20693 11.3189 3.10942 11.2793 3.02285C11.2398 2.93628 11.1717 2.86586 11.0866 2.82332L10.5358 2.54832L6.61075 8.10832C6.40242 8.40332 6.13575 8.64499 5.83325 8.82332ZM4.16659 9.16666H2.49992V15.8333H4.16659V9.16666Z" fill="#9CA3AF"/>
</g>
</g>
</svg>
